<svg width="696" height="697" viewBox="0 0 696 697" fill="none" xmlns="http://www.w3.org/2000/svg">
<path d="M695.999 98.1116C695.996 124.129 685.658 149.107 667.259 167.502L631.434 203.332L202.779 632.057C194.712 640.1 184.793 646.039 173.895 649.354L22.4091 695.291C19.4009 696.195 16.2041 696.268 13.1577 695.502C10.1114 694.736 7.32918 693.16 5.10627 690.941C2.88336 688.721 1.30268 685.941 0.531937 682.896C-0.238812 679.851 -0.170885 676.654 0.728519 673.645L46.6997 522.191C50.0445 511.282 56.0199 501.363 64.0999 493.306L492.704 64.6002L528.545 28.7509C546.944 10.356 571.896 -0.00327515 597.913 -1.1751e-05C623.93 0.00325165 648.864 10.3513 667.259 28.7508C685.654 47.1503 696.002 72.094 695.999 98.1116Z" fill="#1A1A1A" style="fill:#1A1A1A;fill:color(display-p3 0.1020 0.1020 0.1020);fill-opacity:1;"/>
</svg>
