<svg width="512" height="512" viewBox="0 0 512 512" fill="none" xmlns="http://www.w3.org/2000/svg">
<path d="M85.3333 448V372.267L382.043 75.7333C386.075 71.7049 390.341 68.7413 394.843 66.8427C399.348 64.9476 404.03 64 408.891 64C413.63 64 418.222 64.9476 422.667 66.8427C427.111 68.7413 431.289 71.7049 435.2 75.7333L457.6 98.1333C461.628 101.806 464.592 105.865 466.491 110.309C468.386 114.754 469.333 119.465 469.333 124.443C469.333 129.065 468.386 133.687 466.491 138.309C464.592 142.932 461.628 147.259 457.6 151.291L161.067 448H85.3333ZM120.891 412.443H146.491L374.933 184.176L362.133 171.2L349.157 158.4L120.891 386.843V412.443ZM362.133 171.2L349.157 158.4L374.933 184.176L362.133 171.2ZM298.667 448C325.927 448 350.519 441.481 372.443 428.443C394.37 415.408 405.333 397.038 405.333 373.333C405.333 359.584 400.711 347.198 391.467 336.176C382.222 325.154 368.236 316.265 349.509 309.509L322.309 336.709C336.887 340.741 348.443 346.075 356.976 352.709C365.509 359.348 369.776 366.222 369.776 373.333C369.776 383.644 362.814 392.741 348.891 400.624C334.964 408.503 318.222 412.443 298.667 412.443C293.806 412.443 289.628 414.132 286.133 417.509C282.638 420.887 280.891 425.125 280.891 430.224C280.891 435.081 282.638 439.259 286.133 442.757C289.628 446.252 293.806 448 298.667 448ZM117.867 289.067L145.6 261.333C130.428 257.305 118.962 253.068 111.2 248.624C103.438 244.18 99.5573 239.527 99.5573 234.667C99.5573 229.451 103.172 224.414 110.4 219.557C117.628 214.697 132.62 207.822 155.376 198.933C185.481 187.083 205.63 175.941 215.824 165.509C226.014 155.081 231.109 142.697 231.109 128.357C231.109 108.564 223.643 92.8889 208.709 81.3333C193.776 69.7778 173.984 64 149.333 64C134.044 64 120.267 66.6667 108 72C95.7333 77.3333 86.4587 83.9698 80.176 91.9093C76.976 95.5858 75.5538 99.7938 75.9093 104.533C76.2649 109.273 78.5173 113.184 82.6667 116.267C86.5778 119.467 90.9636 120.77 95.824 120.176C100.681 119.586 104.709 117.691 107.909 114.491C113.125 109.275 118.992 105.481 125.509 103.109C132.03 100.741 139.972 99.5573 149.333 99.5573C165.095 99.5573 176.74 102.402 184.267 108.091C191.794 113.78 195.557 120.535 195.557 128.357C195.557 134.757 192.268 140.416 185.691 145.333C179.113 150.251 164.268 157.273 141.157 166.4C109.392 178.606 88.592 189.717 78.7573 199.733C68.9191 209.749 64 221.394 64 234.667C64 246.044 68.3253 256.622 76.976 266.4C85.6302 276.178 99.2604 283.733 117.867 289.067Z" fill="#00CA4E"/>
</svg>
