<svg width="512" height="512" viewBox="0 0 512 512" fill="none" xmlns="http://www.w3.org/2000/svg">
<path d="M377.552 428.934C355.628 441.972 331.036 448.491 303.776 448.491C298.915 448.491 294.737 446.743 291.242 443.248C287.747 439.75 286 435.572 286 430.715C286 425.616 287.747 421.378 291.242 418C294.737 414.623 298.915 412.934 303.776 412.934C323.331 412.934 340.073 408.994 354 401.115C367.923 393.232 374.885 384.135 374.885 373.824C374.885 366.713 370.618 359.839 362.085 353.2C353.552 346.566 341.996 341.232 327.418 337.2L354.618 310C373.345 316.756 387.331 325.645 396.576 336.667C405.82 347.689 410.442 360.075 410.442 373.824C410.442 397.529 399.479 415.899 377.552 428.934Z" fill="#00CA4E" style="fill:#00CA4E;fill:color(display-p3 0.0000 0.7922 0.3059);fill-opacity:1;"/>
<path d="M123.867 296.067L151.6 268.333C136.428 264.305 124.962 260.068 117.2 255.624C109.438 251.18 105.557 246.527 105.557 241.667C105.557 236.451 109.172 231.414 116.4 226.557C123.628 221.697 138.62 214.822 161.376 205.933C191.481 194.083 211.63 182.941 221.824 172.509C232.014 162.081 237.109 149.697 237.109 135.357C237.109 115.564 229.643 99.8889 214.709 88.3333C199.776 76.7778 179.984 71 155.333 71C140.044 71 126.267 73.6667 114 79C101.733 84.3333 92.4587 90.9698 86.176 98.9093C82.976 102.586 81.5538 106.794 81.9093 111.533C82.2649 116.273 84.5173 120.184 88.6667 123.267C92.5778 126.467 96.9636 127.77 101.824 127.176C106.681 126.586 110.709 124.691 113.909 121.491C119.125 116.275 124.992 112.481 131.509 110.109C138.03 107.741 145.972 106.557 155.333 106.557C171.095 106.557 182.74 109.402 190.267 115.091C197.794 120.78 201.557 127.535 201.557 135.357C201.557 141.757 198.268 147.416 191.691 152.333C185.113 157.251 170.268 164.273 147.157 173.4C115.392 185.606 94.592 196.717 84.7573 206.733C74.9191 216.749 70 228.394 70 241.667C70 253.044 74.3253 263.622 82.976 273.4C91.6302 283.178 105.26 290.733 123.867 296.067Z" fill="#00CA4E" style="fill:#00CA4E;fill:color(display-p3 0.0000 0.7922 0.3059);fill-opacity:1;"/>
<path d="M366.349 116.324L383.041 99.6279C389.849 92.8218 399.082 88.9988 408.708 89C418.335 89.0012 427.566 92.8265 434.372 99.6343C441.178 106.442 445.001 115.675 445 125.301C444.999 134.928 441.174 144.16 434.366 150.966L417.68 167.655M366.349 116.324L124.717 357.993C121.727 360.974 119.517 364.644 118.279 368.68L101.27 424.718C100.937 425.832 100.912 427.015 101.197 428.142C101.482 429.268 102.067 430.297 102.889 431.118C103.712 431.939 104.741 432.522 105.868 432.806C106.996 433.089 108.178 433.062 109.291 432.727L165.341 415.731C169.374 414.504 173.044 412.307 176.029 409.331L417.68 167.655M366.349 116.324L417.68 167.655M434.366 150.966C441.174 144.16 444.999 134.928 445 125.301C445.001 115.675 441.178 106.442 434.372 99.6343C427.566 92.8265 418.335 89.0012 408.708 89C399.082 88.9988 389.849 92.8218 383.041 99.6279L366.349 116.324L417.68 167.655L434.366 150.966Z" stroke="#00CA4E" style="stroke:#00CA4E;stroke:color(display-p3 0.0000 0.7922 0.3059);stroke-opacity:1;" stroke-width="36" stroke-linecap="round" stroke-linejoin="round"/>
<path d="M408.71 71C423.111 71.0018 436.921 76.7242 447.102 86.9082C457.283 97.0921 463.002 110.903 463 125.304C462.999 139.703 457.276 153.51 447.094 163.691L447.095 163.692L430.409 180.382C427.033 183.758 422.454 185.655 417.68 185.655C412.906 185.655 408.327 183.759 404.952 180.383L353.621 129.052C346.593 122.023 346.592 110.627 353.62 103.598L370.312 86.9014L370.315 86.8984C380.499 76.717 394.31 70.9982 408.71 71Z" fill="#00CA4E" style="fill:#00CA4E;fill:color(display-p3 0.0000 0.7922 0.3059);fill-opacity:1;"/>
</svg>
